# xmcd
#
# Track frame offsets: 
#        150
#        30607
#        57017
#        74465
#        96750
#        128012
#        147837
#        180685
#        199097
#        228600
#        263285
#        282840
#        304150
#
# Disc length: 4277 seconds
#
# Revision: 2
# Processed by: cddbd v1.5.1PL2 Copyright (c) Steve Scherf et al.
# Submitted via: ExactAudioCopy v0.95b3
#
DISCID=b310b30d
DTITLE=Paul Chambers - Mosaic Select 5: Paul Chambers [CD1]
DYEAR=2003
DGENRE=Jazz
TTITLE0=Dexterity
TTITLE1=Stablemates
TTITLE2=Easy To Love
TTITLE3=Visitation
TTITLE4=Trans's Blues (aka John Paul Jones)
TTITLE5=Eastbound
TTITLE6=Omicron
TTITLE7=Whims Of Chambers
TTITLE8=Nita
TTITLE9=We Six
TTITLE10=Dear Ann
TTITLE11=Tales Of The Fingers
TTITLE12=Just For The Love
EXTD=YEAR: 2003
EXTT0=
EXTT1=
EXTT2=
EXTT3=
EXTT4=
EXTT5=
EXTT6=
EXTT7=
EXTT8=
EXTT9=
EXTT10=
EXTT11=
EXTT12=
PLAYORDER=
